# xmcd
#
# Track frame offsets:
#	187
#	14062
#	34912
#	46837
#	61537
#	72487
#	93037
#	110287
#	122287
#	132337
#	145162
#	157687
#	168037
#	184312
#	195562
#	205687
#	219787
#	232462
#	251250
#	265987
#	278925
#	294337
#
# Disc length: 4198 seconds
#
# Revision: 0
# Processed by: cddbd v1.4PL0 Copyright (c) Steve Scherf et al.
# Submitted via: audiograbber 1.81.03
#
DISCID=31106416
DTITLE=John Hammond - John Hammond
DYEAR=1987
DGENRE=Blues
TTITLE0=My Babe
TTITLE1=Standing Around Crying
TTITLE2=Riding In The Moonlight
TTITLE3=Big 45
TTITLE4=Seventh Son
TTITLE5=Red Hot Kisses
TTITLE6=Help Me
TTITLE7=It Hurts Me Too
TTITLE8=Give Me A 32-20
TTITLE9=You'll Miss Me
TTITLE10=Mr. Luck
TTITLE11=Hot Tamales
TTITLE12=You Don't Love Me
TTITLE13=Step It Up And Go
TTITLE14=Fattening Frogs For Snakes
TTITLE15=Gypsy Woman
TTITLE16=My Baby Left Me
TTITLE17=Louisiana Blues
TTITLE18=Mellow Down Easy
TTITLE19=Your Funeral And My Trial
TTITLE20=Mellow Peaches
TTITLE21=Gone So Long
EXTD=
EXTT0=
EXTT1=
EXTT2=
EXTT3=
EXTT4=
EXTT5=
EXTT6=
EXTT7=
EXTT8=
EXTT9=
EXTT10=
EXTT11=
EXTT12=
EXTT13=
EXTT14=
EXTT15=
EXTT16=
EXTT17=
EXTT18=
EXTT19=
EXTT20=
EXTT21=
PLAYORDER=
